HIERARCHY
ROOT Hips
{
	OFFSET 0.000000 0.000000 0.000000
	CHANNELS 6 Xposition Yposition Zposition Zrotation Yrotation Xrotation 
	JOINT LowerBack
	{
		OFFSET 0.000000 0.000000 0.000000
		CHANNELS 3 Zrotation Yrotation Xrotation
		JOINT Spine
		{
			OFFSET 0.028270 2.035590 -0.193380
			CHANNELS 3 Zrotation Yrotation Xrotation
			JOINT Spine1
			{
				OFFSET 0.056720 2.048850 -0.042750
				CHANNELS 3 Zrotation Yrotation Xrotation
				JOINT Neck
				{
					OFFSET 0.000000 0.000000 0.000000
					CHANNELS 3 Zrotation Yrotation Xrotation
					JOINT Neck1
					{
						OFFSET -0.054170 1.746240 0.172020
						CHANNELS 3 Zrotation Yrotation Xrotation
						JOINT Head
						{
							OFFSET 0.104070 1.761360 -0.123970
							CHANNELS 3 Zrotation Yrotation Xrotation
							End Site
							{
								OFFSET 0.000000 0.000000 0.000000
							}
						}
					}
				}
				JOINT LeftShoulder
				{
					OFFSET 0.000000 0.000000 0.000000
					CHANNELS 3 Zrotation Yrotation Xrotation
					JOINT LeftArm
					{
						OFFSET 3.362410 1.200890 -0.311210
						CHANNELS 3 Zrotation Yrotation Xrotation
						JOINT LeftForeArm
						{
							OFFSET 4.983000 -0.000000 -0.000000
							CHANNELS 3 Zrotation Yrotation Xrotation
							JOINT LeftHand
							{
								OFFSET 3.483560 -0.000000 -0.000000
								CHANNELS 3 Zrotation Yrotation Xrotation
								JOINT LeftFingerBase
								{
									OFFSET 0.000000 0.000000 0.000000
									CHANNELS 3 Zrotation Yrotation Xrotation
									JOINT LeftHandIndex1
									{
										OFFSET 0.715260 -0.000000 -0.000000
										CHANNELS 3 Zrotation Yrotation Xrotation
										End Site
										{
											OFFSET 0.000000 0.000000 0.000000
										}
									}
								}
								JOINT LThumb
								{
									OFFSET 0.000000 0.000000 0.000000
									CHANNELS 3 Zrotation Yrotation Xrotation
									End Site
									{
										OFFSET 0.000000 0.000000 0.000000
									}
								}
							}
						}
					}
				}
				JOINT RightShoulder
				{
					OFFSET 0.000000 0.000000 0.000000
					CHANNELS 3 Zrotation Yrotation Xrotation
					JOINT RightArm
					{
						OFFSET -3.136600 1.374050 -0.404650
						CHANNELS 3 Zrotation Yrotation Xrotation
						JOINT RightForeArm
						{
							OFFSET -5.241900 -0.000000 -0.000000
							CHANNELS 3 Zrotation Yrotation Xrotation
							JOINT RightHand
							{
								OFFSET -3.444170 -0.000000 -0.000000
								CHANNELS 3 Zrotation Yrotation Xrotation
								JOINT RightFingerBase
								{
									OFFSET 0.000000 0.000000 0.000000
									CHANNELS 3 Zrotation Yrotation Xrotation
									JOINT RightHandIndex1
									{
										OFFSET -0.622530 -0.000000 -0.000000
										CHANNELS 3 Zrotation Yrotation Xrotation
										End Site
										{
											OFFSET 0.000000 0.000000 0.000000
										}
									}
								}
								JOINT RThumb
								{
									OFFSET 0.000000 0.000000 0.000000
									CHANNELS 3 Zrotation Yrotation Xrotation
									End Site
									{
										OFFSET 0.000000 0.000000 0.000000
									}
								}
							}
						}
					}
				}
			}
		}
	}
}
}
MOTION
Frames: 7
Frame Time: 0.008333
-2.984345 17.150713 0.308599 -94.202114 87.630613 -75.722355 0.787350 0.120599 -2.835139 -0.465186 -0.028827 -3.313499 -5.110041 0.001793 0.675101 5.258485 -8.040857 -7.362827 -3.260870 -0.242929 -0.008986 0.000000 0.000000 0.000000 1.966882 13.943665 1.211544 -62.490726 6.961733 -6.598596 -179.724207 -85.423652 179.957864 10.043584 -2.691486 -0.269430 -0.231458 0.340225 0.000000 0.000000 0.000000 0.000000 0.000000 0.000000 0.000000 7.494541 -1.195301 -0.476333 60.214216 30.553256 27.752270 179.822420 87.716914 179.995173 -1.474722 6.233549 -0.088345 0.049332 -0.495831 -0.000000 0.000000 0.000000 0.000000 0.000000 0.000000 0.000000 
-2.795072 17.094979 0.296691 -95.161471 87.286046 -76.891075 0.479145 0.071130 -2.930571 -0.528187 -0.058131 -3.319321 -5.119346 -0.027863 0.736538 5.865784 -8.180121 -7.370245 -3.180985 -0.237527 -0.000103 0.000000 0.000000 0.000000 2.173938 13.941075 1.191372 -62.821332 7.509125 -6.820007 -179.732268 -85.407245 179.957474 10.100481 -2.699712 -0.271467 -0.228048 0.339090 0.000000 0.000000 0.000000 0.000000 0.000000 0.000000 0.000000 7.741157 -1.328193 -0.375124 59.944786 31.034904 28.566993 179.768093 86.818223 179.998108 -1.099681 6.533477 -0.069237 0.046342 -0.507682 -0.000000 0.000000 0.000000 0.000000 0.000000 0.000000 0.000000 
-2.606418 17.041372 0.286027 -95.630442 87.013223 -77.573387 0.112591 0.008841 -3.014051 -0.604449 -0.095284 -3.323695 -5.136684 -0.065132 0.792293 6.483446 -8.293150 -7.371375 -3.101862 -0.232123 0.008853 0.000000 0.000000 0.000000 2.292526 13.952698 1.180094 -63.045020 7.963665 -7.002799 -179.742279 -85.463378 179.957340 10.139854 -2.698349 -0.272205 -0.224972 0.337242 0.000000 0.000000 0.000000 0.000000 0.000000 0.000000 0.000000 7.998716 -1.442608 -0.271216 59.740976 31.480962 29.344973 179.711800 85.986795 -179.998457 -0.655231 6.833722 -0.043541 0.041510 -0.519712 -0.000000 0.000000 0.000000 0.000000 0.000000 0.000000 0.000000 
-2.419312 16.990878 0.275628 -95.611089 86.807617 -77.784307 -0.292448 -0.058937 -3.064994 -0.689273 -0.133784 -3.323508 -5.158792 -0.103509 0.838656 7.087841 -8.380651 -7.365678 -3.022136 -0.226588 0.017624 0.000000 0.000000 0.000000 2.306764 13.981307 1.177853 -63.168213 8.301474 -7.139691 -179.755128 -85.611969 179.957469 10.161514 -2.679053 -0.270745 -0.222221 0.334519 0.000000 0.000000 0.000000 0.000000 0.000000 0.000000 0.000000 8.235118 -1.536875 -0.169838 59.622205 31.873999 30.077374 179.654571 85.231975 -179.994502 -0.132160 7.112852 -0.009861 0.034351 -0.531255 -0.000000 0.000000 0.000000 0.000000 0.000000 0.000000 0.000000 
-2.234628 16.944439 0.264658 -95.003820 86.668575 -77.435502 -0.722665 -0.123882 -3.066545 -0.779588 -0.165938 -3.316398 -5.183166 -0.135311 0.872427 7.658534 -8.444711 -7.352742 -2.941001 -0.220848 0.026080 0.000000 0.000000 0.000000 2.209865 14.028295 1.184117 -63.202657 8.500283 -7.224016 -179.771692 -85.871571 179.957711 10.167879 -2.634129 -0.266488 -0.219779 0.330814 0.000000 0.000000 0.000000 0.000000 0.000000 0.000000 0.000000 8.424876 -1.609999 -0.075612 59.603650 32.195724 30.755129 179.597741 84.561331 -179.990025 0.477590 7.349891 0.032498 0.024425 -0.541597 -0.000000 0.000000 0.000000 0.000000 0.000000 0.000000 0.000000 
-2.052974 16.903095 0.251909 -93.770017 86.577097 -76.486159 -1.147180 -0.177328 -3.016935 -0.868866 -0.185660 -3.302661 -5.208248 -0.154480 0.891685 8.176946 -8.490222 -7.332853 -2.858902 -0.214952 0.034258 0.000000 0.000000 0.000000 1.989450 14.088711 1.196984 -63.160259 8.551873 -7.255191 -179.792556 -86.246209 179.958094 10.164309 -2.554938 -0.258735 -0.217689 0.325964 0.000000 0.000000 0.000000 0.000000 0.000000 0.000000 0.000000 8.550715 -1.663832 0.008911 59.685100 32.433295 31.371681 179.542341 83.979588 -179.985051 1.177012 7.526003 0.083533 0.011518 -0.549983 -0.000000 0.000000 0.000000 0.000000 0.000000 0.000000 0.000000 
-1.874826 16.867676 0.237312 -91.662723 86.546064 -74.690887 -1.579563 -0.212158 -2.913393 -0.960123 -0.184995 -3.282344 -5.234245 -0.153118 0.895924 8.637398 -8.520014 -7.306000 -2.776904 -0.208994 0.042241 0.000000 0.000000 0.000000 1.664604 14.162949 1.214507 -63.061541 8.440316 -7.227277 -179.818741 -86.747782 179.958545 10.158024 -2.436816 -0.247286 -0.215928 0.320035 0.000000 0.000000 0.000000 0.000000 0.000000 0.000000 0.000000 8.612978 -1.698262 0.081801 59.867036 32.571842 31.916507 179.489938 83.488584 -179.979630 1.966688 7.626537 0.142147 -0.004502 -0.555876 -0.000000 0.000000 0.000000 0.000000 0.000000 0.000000 0.000000 
